<svg height="1598" width="720" xmlns="http://www.w3.org/2000/svg">
<rect height="1598" fill="#555" width="720"></rect>
<text fill="#7f7" font-family="Courier New" font-size="12" xml:space="preserve">
<tspan x="10" y="26">2018-08-31 14:23:20 +0700</tspan>

<tspan x="10" y="42">clidict</tspan>

<tspan x="10" y="58"></tspan>

<tspan x="10" y="74">2018-08-22 11:17:37 +0700</tspan>

<tspan x="10" y="90">update.build</tspan>

<tspan x="10" y="106"></tspan>

<tspan x="10" y="122">2018-08-22 11:11:09 +0700</tspan>

<tspan x="10" y="138">- support uglifying files with .htm/.html/.json extensions</tspan>

<tspan x="10" y="154"></tspan>

<tspan x="10" y="170">2018-08-22 10:53:51 +0700</tspan>

<tspan x="10" y="186">update.build</tspan>

<tspan x="10" y="202"></tspan>

<tspan x="10" y="218">2018-08-22 00:39:50 +0700</tspan>

<tspan x="10" y="234">- support uglifying files with .htm and .html extensions</tspan>

<tspan x="10" y="250"></tspan>

<tspan x="10" y="266">2018-08-22 00:34:30 +0700</tspan>

<tspan x="10" y="282">- support uglifying files with .htm and .html extensions</tspan>

<tspan x="10" y="298"></tspan>

<tspan x="10" y="314">2018-08-15 12:42:11 +0700</tspan>

<tspan x="10" y="330">[npm publish] - npm publish 2018.8.15</tspan>

<tspan x="10" y="346">- migrate from modeJs -&gt; isBrowser</tspan>

<tspan x="10" y="362">- update build</tspan>

<tspan x="10" y="378"></tspan>

<tspan x="10" y="394">2018-05-25 21:22:11 +0800</tspan>

<tspan x="10" y="410">[npm publish] - npm publish 2018.5.25</tspan>

<tspan x="10" y="426">- update build</tspan>

<tspan x="10" y="442"></tspan>

<tspan x="10" y="458">2018-04-09 08:43:17 +0800</tspan>

<tspan x="10" y="474">[npm publish] - npm publish v2018.4.8</tspan>

<tspan x="10" y="490">- fix build-ci for nodejs v9.x</tspan>

<tspan x="10" y="506">- escape \r and \t</tspan>

<tspan x="10" y="522"></tspan>

<tspan x="10" y="538">2018-01-16 10:11:48 +0700</tspan>

<tspan x="10" y="554">[npm publish] - npm publish 2018.1.15</tspan>

<tspan x="10" y="570">- update build</tspan>

<tspan x="10" y="586"></tspan>

<tspan x="10" y="602">2017-10-29 23:58:48 +0800</tspan>

<tspan x="10" y="618">[npm publish] - npm publish 2017.10.28</tspan>

<tspan x="10" y="634">- update build</tspan>

<tspan x="10" y="650"></tspan>

<tspan x="10" y="666">2017-09-16 17:00:13 +0700</tspan>

<tspan x="10" y="682">[npm publish] - npm publish 2017.9.15</tspan>

<tspan x="10" y="698">- add cli-help doc to README.md</tspan>

<tspan x="10" y="714"></tspan>

<tspan x="10" y="730">2017-07-16 03:29:16 +0800</tspan>

<tspan x="10" y="746">[npm publish] - npm publish 2017.7.15</tspan>

<tspan x="10" y="762">- deduplicate file assets.uglifyjs.rollup.js</tspan>

<tspan x="10" y="778">- add README section 'extra screenshots'</tspan>

<tspan x="10" y="794">- add README section 'quickstart standalone app'</tspan>

<tspan x="10" y="810">- rename README section 'quickstart web example' -&gt; 'quickstart example.js'</tspan>

<tspan x="10" y="826"></tspan>

<tspan x="10" y="842">2017-05-22 03:37:41 +0800</tspan>

<tspan x="10" y="858">[npm publish] - npm publish 2017.5.20</tspan>

<tspan x="10" y="874">- deduplicate file assets.uglifyjs.rollup.js</tspan>

<tspan x="10" y="890">- add README section 'internal screen-capture'</tspan>

<tspan x="10" y="906">- add README section 'quickstart standalone app'</tspan>

<tspan x="10" y="922">- rename README section 'quickstart web example' -&gt; 'quickstart example.js'</tspan>

<tspan x="10" y="938"></tspan>

<tspan x="10" y="954">2017-03-29 00:12:14 +0800</tspan>

<tspan x="10" y="970">[npm publish] - npm publish 2017.3.28</tspan>

<tspan x="10" y="986">- update .travis.yml</tspan>

<tspan x="10" y="1002"></tspan>

<tspan x="10" y="1018">2017-03-28 23:19:09 +0800</tspan>

<tspan x="10" y="1034">- npm publish 2017.3.27</tspan>

<tspan x="10" y="1050">- use remote-credentials for travis-ci build</tspan>

<tspan x="10" y="1066"></tspan>

<tspan x="10" y="1082">2017-02-21 02:06:18 +0800</tspan>

<tspan x="10" y="1098">- npm publish 2017.2.19</tspan>

<tspan x="10" y="1114">- create published-alias uglify-lite</tspan>

<tspan x="10" y="1130">- replace env var npm_package_name with npm_package_nameAlias in istanbul code-coverage</tspan>

<tspan x="10" y="1146"></tspan>

<tspan x="10" y="1162">2017-02-19 01:35:39 +0800</tspan>

<tspan x="10" y="1178">- npm publish 2017.2.18</tspan>

<tspan x="10" y="1194">- add file assets.uglifyjs.rollup.js</tspan>

<tspan x="10" y="1210">- add heroku-postbuild npm-script</tspan>

<tspan x="10" y="1226">- do not auto-uglify js-assets in production</tspan>

<tspan x="10" y="1242">- revamp README.md</tspan>

<tspan x="10" y="1258"></tspan>

<tspan x="10" y="1274">2016-12-13 21:34:47 +0800</tspan>

<tspan x="10" y="1290">- npm publish 2016.12.1</tspan>

<tspan x="10" y="1306">- add ability to uglify css</tspan>

<tspan x="10" y="1322"></tspan>

<tspan x="10" y="1338">2016-11-29 15:54:05 +0800</tspan>

<tspan x="10" y="1354">- npm publish 2016.11.1</tspan>

<tspan x="10" y="1370">- change preferred column-size from 256 to 80</tspan>

<tspan x="10" y="1386">- README.md - add cdn-download links</tspan>

<tspan x="10" y="1402">- README.md - replace alpha api-doc with beta api-doc</tspan>

<tspan x="10" y="1418"></tspan>

<tspan x="10" y="1434">2016-10-17 21:28:04 +0800</tspan>

<tspan x="10" y="1450">- npm publish 2016.8.2</tspan>

<tspan x="10" y="1466">- add 'hide internal test' button to demo</tspan>

<tspan x="10" y="1482"></tspan>

<tspan x="10" y="1498">2016-09-29 03:12:49 +0800</tspan>

<tspan x="10" y="1514">- npm publish 2015.8.1</tspan>

<tspan x="10" y="1530">- initial working version</tspan>

<tspan x="10" y="1546"></tspan>

<tspan x="10" y="1562">2014-03-26 02:31:50 +0700</tspan>

<tspan x="10" y="1578">add blank README.md</tspan>

</text>
</svg>
