<svg height="1646" width="720" xmlns="http://www.w3.org/2000/svg">
<rect height="1646" fill="#555" width="720"></rect>
<text fill="#7f7" font-family="Courier New" font-size="12" xml:space="preserve">
<tspan x="10" y="26">2018-08-31 14:27:39 +0700</tspan>

<tspan x="10" y="42">clidict</tspan>

<tspan x="10" y="58"></tspan>

<tspan x="10" y="74">2018-08-31 14:23:20 +0700</tspan>

<tspan x="10" y="90">clidict</tspan>

<tspan x="10" y="106"></tspan>

<tspan x="10" y="122">2018-08-22 11:17:37 +0700</tspan>

<tspan x="10" y="138">update.build</tspan>

<tspan x="10" y="154"></tspan>

<tspan x="10" y="170">2018-08-22 11:11:09 +0700</tspan>

<tspan x="10" y="186">- support uglifying files with .htm/.html/.json extensions</tspan>

<tspan x="10" y="202"></tspan>

<tspan x="10" y="218">2018-08-22 10:53:51 +0700</tspan>

<tspan x="10" y="234">update.build</tspan>

<tspan x="10" y="250"></tspan>

<tspan x="10" y="266">2018-08-22 00:39:50 +0700</tspan>

<tspan x="10" y="282">- support uglifying files with .htm and .html extensions</tspan>

<tspan x="10" y="298"></tspan>

<tspan x="10" y="314">2018-08-22 00:34:30 +0700</tspan>

<tspan x="10" y="330">- support uglifying files with .htm and .html extensions</tspan>

<tspan x="10" y="346"></tspan>

<tspan x="10" y="362">2018-08-15 12:42:11 +0700</tspan>

<tspan x="10" y="378">[npm publish] - npm publish 2018.8.15</tspan>

<tspan x="10" y="394">- migrate from modeJs -&gt; isBrowser</tspan>

<tspan x="10" y="410">- update build</tspan>

<tspan x="10" y="426"></tspan>

<tspan x="10" y="442">2018-05-25 21:22:11 +0800</tspan>

<tspan x="10" y="458">[npm publish] - npm publish 2018.5.25</tspan>

<tspan x="10" y="474">- update build</tspan>

<tspan x="10" y="490"></tspan>

<tspan x="10" y="506">2018-04-09 08:43:17 +0800</tspan>

<tspan x="10" y="522">[npm publish] - npm publish v2018.4.8</tspan>

<tspan x="10" y="538">- fix build-ci for nodejs v9.x</tspan>

<tspan x="10" y="554">- escape \r and \t</tspan>

<tspan x="10" y="570"></tspan>

<tspan x="10" y="586">2018-01-16 10:11:48 +0700</tspan>

<tspan x="10" y="602">[npm publish] - npm publish 2018.1.15</tspan>

<tspan x="10" y="618">- update build</tspan>

<tspan x="10" y="634"></tspan>

<tspan x="10" y="650">2017-10-29 23:58:48 +0800</tspan>

<tspan x="10" y="666">[npm publish] - npm publish 2017.10.28</tspan>

<tspan x="10" y="682">- update build</tspan>

<tspan x="10" y="698"></tspan>

<tspan x="10" y="714">2017-09-16 17:00:13 +0700</tspan>

<tspan x="10" y="730">[npm publish] - npm publish 2017.9.15</tspan>

<tspan x="10" y="746">- add cli-help doc to README.md</tspan>

<tspan x="10" y="762"></tspan>

<tspan x="10" y="778">2017-07-16 03:29:16 +0800</tspan>

<tspan x="10" y="794">[npm publish] - npm publish 2017.7.15</tspan>

<tspan x="10" y="810">- deduplicate file assets.uglifyjs.rollup.js</tspan>

<tspan x="10" y="826">- add README section 'extra screenshots'</tspan>

<tspan x="10" y="842">- add README section 'quickstart standalone app'</tspan>

<tspan x="10" y="858">- rename README section 'quickstart web example' -&gt; 'quickstart example.js'</tspan>

<tspan x="10" y="874"></tspan>

<tspan x="10" y="890">2017-05-22 03:37:41 +0800</tspan>

<tspan x="10" y="906">[npm publish] - npm publish 2017.5.20</tspan>

<tspan x="10" y="922">- deduplicate file assets.uglifyjs.rollup.js</tspan>

<tspan x="10" y="938">- add README section 'internal screen-capture'</tspan>

<tspan x="10" y="954">- add README section 'quickstart standalone app'</tspan>

<tspan x="10" y="970">- rename README section 'quickstart web example' -&gt; 'quickstart example.js'</tspan>

<tspan x="10" y="986"></tspan>

<tspan x="10" y="1002">2017-03-29 00:12:14 +0800</tspan>

<tspan x="10" y="1018">[npm publish] - npm publish 2017.3.28</tspan>

<tspan x="10" y="1034">- update .travis.yml</tspan>

<tspan x="10" y="1050"></tspan>

<tspan x="10" y="1066">2017-03-28 23:19:09 +0800</tspan>

<tspan x="10" y="1082">- npm publish 2017.3.27</tspan>

<tspan x="10" y="1098">- use remote-credentials for travis-ci build</tspan>

<tspan x="10" y="1114"></tspan>

<tspan x="10" y="1130">2017-02-21 02:06:18 +0800</tspan>

<tspan x="10" y="1146">- npm publish 2017.2.19</tspan>

<tspan x="10" y="1162">- create published-alias uglify-lite</tspan>

<tspan x="10" y="1178">- replace env var npm_package_name with npm_package_nameAlias in istanbul code-coverage</tspan>

<tspan x="10" y="1194"></tspan>

<tspan x="10" y="1210">2017-02-19 01:35:39 +0800</tspan>

<tspan x="10" y="1226">- npm publish 2017.2.18</tspan>

<tspan x="10" y="1242">- add file assets.uglifyjs.rollup.js</tspan>

<tspan x="10" y="1258">- add heroku-postbuild npm-script</tspan>

<tspan x="10" y="1274">- do not auto-uglify js-assets in production</tspan>

<tspan x="10" y="1290">- revamp README.md</tspan>

<tspan x="10" y="1306"></tspan>

<tspan x="10" y="1322">2016-12-13 21:34:47 +0800</tspan>

<tspan x="10" y="1338">- npm publish 2016.12.1</tspan>

<tspan x="10" y="1354">- add ability to uglify css</tspan>

<tspan x="10" y="1370"></tspan>

<tspan x="10" y="1386">2016-11-29 15:54:05 +0800</tspan>

<tspan x="10" y="1402">- npm publish 2016.11.1</tspan>

<tspan x="10" y="1418">- change preferred column-size from 256 to 80</tspan>

<tspan x="10" y="1434">- README.md - add cdn-download links</tspan>

<tspan x="10" y="1450">- README.md - replace alpha api-doc with beta api-doc</tspan>

<tspan x="10" y="1466"></tspan>

<tspan x="10" y="1482">2016-10-17 21:28:04 +0800</tspan>

<tspan x="10" y="1498">- npm publish 2016.8.2</tspan>

<tspan x="10" y="1514">- add 'hide internal test' button to demo</tspan>

<tspan x="10" y="1530"></tspan>

<tspan x="10" y="1546">2016-09-29 03:12:49 +0800</tspan>

<tspan x="10" y="1562">- npm publish 2015.8.1</tspan>

<tspan x="10" y="1578">- initial working version</tspan>

<tspan x="10" y="1594"></tspan>

<tspan x="10" y="1610">2014-03-26 02:31:50 +0700</tspan>

<tspan x="10" y="1626">add blank README.md</tspan>

</text>
</svg>
