<svg height="702" width="720" xmlns="http://www.w3.org/2000/svg">
<rect height="702" fill="#555" width="720"></rect>
<text fill="#7f7" font-family="Courier New" font-size="12" xml:space="preserve">
<tspan x="10" y="26"></tspan>

<tspan x="10" y="42">[MODE_BUILD=buildApp] - 2018-04-21T10:47:21.904Z - npm-testing /home/travis/build/kaizhu256/node\</tspan>
<tspan x="10" y="58">-uglifyjs-lite</tspan>

<tspan x="10" y="74"></tspan>

<tspan x="10" y="90"></tspan>

<tspan x="10" y="106">buildApp - merged test-report from file /home/travis/build/kaizhu256/node-uglifyjs-lite/tmp/buil\</tspan>
<tspan x="10" y="122">d/test-report.json</tspan>

<tspan x="10" y="138">&gt; server listening on http-port 62087</tspan>

<tspan x="10" y="154">&gt; server listening on http-port 43064</tspan>

<tspan x="10" y="170">[node test-case 1 of 1 passed] - testCase_buildApp_default</tspan>

<tspan x="10" y="186"></tspan>

<tspan x="10" y="202">buildApp - merged test-report from file /home/travis/build/kaizhu256/node-uglifyjs-lite/tmp/buil\</tspan>
<tspan x="10" y="218">d/test-report.json</tspan>

<tspan x="10" y="234"></tspan>

<tspan x="10" y="250">-------------------------------------------------------</tspan>

<tspan x="10" y="266">| test-report - buildApidoc - node - linux v9.11.1 - 2018-04-21T10:46:27.853Z</tspan>

<tspan x="10" y="282">|   59798 ms            0 failed        1 passed      |</tspan>

<tspan x="10" y="298">-------------------------------------------------------</tspan>

<tspan x="10" y="314">| test-report - npmTest - browser - / - Mozilla/5.0 (X11; Linux x86_64) AppleWebKit/537.36 (KHTM\</tspan>
<tspan x="10" y="330">L, like Gecko) Chrome/58.0.3029.110 Electron/1.7.13 Safari/537.36 - 2018-04-21T10:46:10.290Z</tspan>

<tspan x="10" y="346">|      55 ms            0 failed        9 passed      |</tspan>

<tspan x="10" y="362">-------------------------------------------------------</tspan>

<tspan x="10" y="378">| test-report - npmTest - node - linux v9.11.1 - 2018-04-21T10:46:08.078Z</tspan>

<tspan x="10" y="394">|   16402 ms            0 failed        9 passed      |</tspan>

<tspan x="10" y="410">-------------------------------------------------------</tspan>

<tspan x="10" y="426">| test-report - npmTestPublished - browser - / - Mozilla/5.0 (X11; Linux x86_64) AppleWebKit/537\</tspan>
<tspan x="10" y="442">.36 (KHTML, like Gecko) Chrome/58.0.3029.110 Electron/1.7.13 Safari/537.36 - 2018-04-21T10:45:03\</tspan>
<tspan x="10" y="458">.818Z</tspan>

<tspan x="10" y="474">|      66 ms            0 failed        9 passed      |</tspan>

<tspan x="10" y="490">-------------------------------------------------------</tspan>

<tspan x="10" y="506">| test-report - npmTestPublished - node - linux v9.11.1 - 2018-04-21T10:45:00.837Z</tspan>

<tspan x="10" y="522">|   16966 ms            0 failed        9 passed      |</tspan>

<tspan x="10" y="538">-------------------------------------------------------</tspan>

<tspan x="10" y="554"></tspan>

<tspan x="10" y="570">created test-report file /home/travis/build/kaizhu256/node-uglifyjs-lite/tmp/build/test-report.h\</tspan>
<tspan x="10" y="586">tml</tspan>

<tspan x="10" y="602"></tspan>

<tspan x="10" y="618"></tspan>

<tspan x="10" y="634">buildApp - 0 failed tests</tspan>

<tspan x="10" y="650"></tspan>

<tspan x="10" y="666"></tspan>

<tspan x="10" y="682">[MODE_BUILD=buildApp] - 2018-04-21T10:47:29.123Z - EXIT_CODE - 0</tspan>

</text>
</svg>
